<svg fill="none" height="24" viewBox="0 0 24 24" width="24" xmlns="http://www.w3.org/2000/svg"><path clip-rule="evenodd" d="m15 3.99976c0-.55229.4477-1 1-1h2c1.6569 0 3 1.34314 3 3v2c0 .55228-.4477 1-1 1s-1-.44772-1-1v-2c0-.55229-.4477-1-1-1h-2c-.5523 0-1-.44772-1-1zm-11.99999 8.00024c0-.8284.67157-1.5 1.5-1.5h14.99999c.8284 0 1.5.6716 1.5 1.5s-.6716 1.5-1.5 1.5h-14.99999c-.82843 0-1.5-.6716-1.5-1.5zm4.99999 8.9998c.55228 0 1-.4478 1-1 0-.5523-.44772-1-1-1h-2c-.55228 0-1-.4478-1-1v-2c0-.5523-.44771-1-1-1-.55228 0-1 .4477-1 1v2c0 1.6568 1.34315 3 3 3zm12-6c.5523 0 1 .4477 1 1v2c0 1.6568-1.3431 3-3 3h-2c-.5523 0-1-.4478-1-1 0-.5523.4477-1 1-1h2c.5523 0 1-.4478 1-1v-2c0-.5523.4477-1 1-1zm-17-7.00004c0 .55228.44772 1 1 1s1-.44772 1-1v-2c0-.55229.44772-1 1-1h2c.55229 0 1-.44772 1-1 0-.55229-.44771-1-1-1h-2c-1.65685 0-3 1.34314-3 3z" fill="#292929" fill-rule="evenodd"/></svg>